<svg width="77" height="62" viewBox="0 0 77 62" fill="none" xmlns="http://www.w3.org/2000/svg">
<path d="M61.0348 23.6519C61.0348 23.6519 60.8868 24.6779 61.6465 25.2797C62.5837 26.0196 63.6295 25.7927 63.6295 25.7927L74.4915 12.0204L72.469 10.3531L61.0348 23.6519Z" fill="#9F9F9F"/>
<path d="M63.2348 26.2663C62.7711 26.2663 62.0509 26.1577 61.38 25.625C60.4231 24.8752 60.6007 23.642 60.6007 23.5828L60.6204 23.4546L60.6993 23.3559L72.4196 9.75131L75.103 11.9612L63.876 26.1873L63.728 26.2169C63.7083 26.2268 63.5209 26.2663 63.2348 26.2663ZM61.459 23.8295C61.4491 24.0662 61.4886 24.599 61.9226 24.9344C62.4948 25.3882 63.1262 25.3981 63.3926 25.3784L73.8797 12.0796L72.5281 10.9648L61.459 23.8295Z" fill="#2D2E2D"/>
<path d="M74.2251 12.6221C75.5164 12.6221 76.5632 11.5753 76.5632 10.284C76.5632 8.99268 75.5164 7.94586 74.2251 7.94586C72.9338 7.94586 71.887 8.99268 71.887 10.284C71.887 11.5753 72.9338 12.6221 74.2251 12.6221Z" fill="#9F9F9F"/>
<path d="M74.2251 13.0661C73.5838 13.0661 72.9623 12.8491 72.4591 12.4347C71.2753 11.4581 71.1075 9.71185 72.0842 8.52798C73.0609 7.34411 74.8071 7.17639 75.991 8.15309C76.5632 8.62663 76.9184 9.28763 76.9874 10.0275C77.0565 10.7675 76.8394 11.4876 76.3659 12.0599C75.8924 12.6321 75.2314 12.9872 74.4914 13.0563C74.4026 13.0563 74.3139 13.0661 74.2251 13.0661ZM72.765 9.08045C72.104 9.88943 72.2125 11.093 73.0215 11.754C73.4161 12.0796 73.8995 12.2276 74.4125 12.1782C74.9157 12.1289 75.3695 11.8823 75.695 11.4975C76.3659 10.6885 76.2475 9.4948 75.4385 8.82394C74.6296 8.15309 73.426 8.27147 72.765 9.08045Z" fill="#2D2E2D"/>
<path d="M64.9711 60.7366H14.5975C14.5876 60.7366 14.5679 60.7267 14.5679 60.707V25.6546C14.5679 11.7837 25.9133 0.438263 39.7843 0.438263C53.6552 0.438263 65.0006 11.7837 65.0006 25.6546V60.707C64.9908 60.7169 64.9809 60.7366 64.9711 60.7366Z" fill="#9F9F9F"/>
<path d="M65.4052 61.1707H14.1536C14.1438 61.1707 14.124 61.1608 14.124 61.1411V26.1085C14.1339 12.05 25.2524 0.260678 39.3108 0.00417292C53.6652 -0.252332 65.4348 11.3496 65.4348 25.6546V61.1411C65.4348 61.1608 65.425 61.1707 65.4052 61.1707ZM15.0317 60.2927H64.5272C64.5371 60.2927 64.5568 60.2828 64.5568 60.2631V26.1282C64.5568 11.7146 52.7576 0.0929631 38.3637 0.911805C25.3609 1.66159 15.0119 12.4644 15.0119 25.6546V60.2729C15.0119 60.2828 15.0218 60.2927 15.0317 60.2927Z" fill="#2D2E2D"/>
<path d="M59.5254 55.2612H26.9099C24.7394 55.2612 22.9735 53.4854 22.9735 51.3248V28.2591C22.9735 17.1209 32.0794 8.01498 43.2177 8.01498C54.3559 8.01498 63.4618 17.1209 63.4618 28.2591V51.315C63.4618 53.4854 61.6959 55.2612 59.5254 55.2612Z" fill="#2D2E2D"/>
<path d="M36.0157 28.0619C39.3611 28.0619 42.0732 25.3719 42.0732 22.0537C42.0732 18.7355 39.3611 16.0456 36.0157 16.0456C32.6703 16.0456 29.9583 18.7355 29.9583 22.0537C29.9583 25.3719 32.6703 28.0619 36.0157 28.0619Z" fill="#B9CBAA"/>
<path d="M52.0571 28.0619C55.4025 28.0619 58.1145 25.3719 58.1145 22.0537C58.1145 18.7355 55.4025 16.0456 52.0571 16.0456C48.7116 16.0456 45.9996 18.7355 45.9996 22.0537C45.9996 25.3719 48.7116 28.0619 52.0571 28.0619Z" fill="#B9CBAA"/>
<path d="M38.2948 23.4941C39.0958 23.4941 39.7451 22.8492 39.7451 22.0537C39.7451 21.2582 39.0958 20.6133 38.2948 20.6133C37.4939 20.6133 36.8446 21.2582 36.8446 22.0537C36.8446 22.8492 37.4939 23.4941 38.2948 23.4941Z" fill="#2D2E2D"/>
<path d="M54.3755 23.4941C55.1765 23.4941 55.8258 22.8492 55.8258 22.0537C55.8258 21.2582 55.1765 20.6133 54.3755 20.6133C53.5746 20.6133 52.9253 21.2582 52.9253 22.0537C52.9253 22.8492 53.5746 23.4941 54.3755 23.4941Z" fill="#2D2E2D"/>
<path d="M20.734 23.573C20.734 23.573 20.9313 24.9147 19.9349 25.704C18.7115 26.6708 17.3402 26.365 17.3402 26.365L3.14368 8.37016L5.78765 6.19974L20.734 23.573Z" fill="#9F9F9F"/>
<path d="M17.8631 26.8582C17.5079 26.8582 17.2711 26.8089 17.2415 26.799L17.0936 26.7694L2.53198 8.31097L5.83695 5.58807L21.1483 23.3856L21.168 23.5138C21.1779 23.5829 21.3949 25.112 20.2012 26.0493C19.3528 26.7201 18.4451 26.8582 17.8631 26.8582ZM17.577 25.9605C17.9223 25.9999 18.82 26.0197 19.6586 25.3587C20.2999 24.8555 20.3295 24.0465 20.3097 23.7506L5.72843 6.8114L3.75531 8.43922L17.577 25.9605Z" fill="#2D2E2D"/>
<path d="M3.48899 9.16926C5.17806 9.16926 6.54731 7.8 6.54731 6.11094C6.54731 4.42187 5.17806 3.05261 3.48899 3.05261C1.79992 3.05261 0.430664 4.42187 0.430664 6.11094C0.430664 7.8 1.79992 9.16926 3.48899 9.16926Z" fill="#9F9F9F"/>
<path d="M3.49883 9.60336C2.49255 9.60336 1.48626 9.16927 0.795668 8.3307C0.203734 7.61051 -0.072502 6.70288 0.016288 5.77552C0.105078 4.84815 0.549029 4.00958 1.26921 3.41765C1.9894 2.82571 2.9069 2.54948 3.8244 2.63827C4.75176 2.71719 5.59033 3.16114 6.19213 3.88133C7.41546 5.37103 7.19842 7.58092 5.71859 8.80425C5.06746 9.33699 4.27821 9.60336 3.49883 9.60336ZM3.48897 3.48671C2.88717 3.48671 2.3051 3.69388 1.83155 4.0885C1.28895 4.53246 0.953517 5.16385 0.884458 5.85444C0.815399 6.5549 1.02258 7.22575 1.46653 7.76836C1.91048 8.31097 2.54187 8.6464 3.23246 8.70559C3.94278 8.78451 4.61364 8.56747 5.15625 8.12352C6.27106 7.20602 6.42891 5.55847 5.51141 4.44367C5.06746 3.90106 4.43606 3.56563 3.74547 3.49657C3.65668 3.49657 3.56789 3.48671 3.48897 3.48671Z" fill="#2D2E2D"/>
<path d="M53.675 50.2397C57.4019 50.2397 60.4231 46.5162 60.4231 41.9231C60.4231 37.3299 57.4019 33.6064 53.675 33.6064C49.9482 33.6064 46.927 37.3299 46.927 41.9231C46.927 46.5162 49.9482 50.2397 53.675 50.2397Z" fill="#2D2E2D"/>
<path d="M53.685 52.4397C48.7621 52.4397 44.7468 47.7239 44.7468 41.9329C44.7468 36.1418 48.7522 31.426 53.685 31.426C58.6178 31.426 62.6232 36.1418 62.6232 41.9329C62.6232 47.7239 58.6079 52.4397 53.685 52.4397ZM53.685 35.8063C51.2186 35.8063 49.137 38.6082 49.137 41.9329C49.137 45.2575 51.2186 48.0594 53.685 48.0594C56.1514 48.0594 58.2331 45.2575 58.2331 41.9329C58.2331 38.6082 56.1514 35.8063 53.685 35.8063Z" fill="#B9CBAA"/>
</svg>
