<?xml version="1.0" encoding="utf-8"?>
<!-- Generator: Adobe Illustrator 24.3.0, SVG Export Plug-In . SVG Version: 6.00 Build 0)  -->
<svg version="1.1" id="Layer_1" xmlns="http://www.w3.org/2000/svg" xmlns:xlink="http://www.w3.org/1999/xlink" x="0px" y="0px"
	 viewBox="0 0 58.69 77.78" style="enable-background:new 0 0 58.69 77.78;" xml:space="preserve">
<style type="text/css">
	.st0{fill:url(#SVGID_1_);}
	.st1{fill:url(#SVGID_2_);}
	.st2{fill:#FFFFFF;}
</style>
<g>
	<linearGradient id="SVGID_1_" gradientUnits="userSpaceOnUse" x1="10.6548" y1="69.9995" x2="48.513" y2="26.7589">
		<stop  offset="0" style="stop-color:#2AE07E"/>
		<stop  offset="1" style="stop-color:#76FFA1"/>
	</linearGradient>
	<path class="st0" d="M51.84,55.03c-18.5,0-33.84-13.46-36.79-31.12c-4.35,2.26-8.2,5.38-10.83,9.53C3.13,35.15,2.25,37,1.59,38.92
		c-0.04,0.12-0.08,0.24-0.12,0.36C0.5,42.23,0,45.32,0,48.43c0,16.21,13.14,29.35,29.35,29.35c8.25,0,16.23-3.55,21.77-9.66
		c3.49-3.86,5.36-8.56,6.36-13.51C55.64,54.89,53.76,55.03,51.84,55.03z"/>
	<linearGradient id="SVGID_2_" gradientUnits="userSpaceOnUse" x1="34.3493" y1="42.4219" x2="56.9214" y2="5.0709">
		<stop  offset="0" style="stop-color:#2AE07E"/>
		<stop  offset="1" style="stop-color:#76FFA1"/>
	</linearGradient>
	<path class="st1" d="M58.56,0.48c0-0.45-0.58-0.65-0.85-0.29c-2.05,2.69-4.05,5.41-6.15,8.07c-3.19,4.04-7.12,7.67-12.14,9.19
		c-4.37,1.32-8.9,1.69-13.34,2.62c-3.74,0.78-7.54,2.04-11.03,3.85C18,41.57,33.35,55.03,51.84,55.03c1.91,0,3.79-0.14,5.63-0.42
		c0.43-2.15,0.7-4.35,0.86-6.55c0.06-0.83,0.11-1.65,0.16-2.48c0.41-7.76,0.07-15.57,0.07-23.33C58.56,15,58.56,7.74,58.56,0.48z"/>
	<circle class="st2" cx="40.32" cy="33.91" r="3.57"/>
	<path class="st2" d="M28.8,37.22c-5.48,0.28-9.91,4.76-10.13,10.24c-0.12,2.91,0.93,5.57,2.7,7.56c0.1,0.11,0.14,0.25,0.11,0.39
		l-0.67,3.7c-0.03,0.18,0.15,0.31,0.31,0.23l3.39-1.7c0.13-0.06,0.27-0.06,0.4-0.01c1.59,0.72,3.38,1.07,5.27,0.93
		c5.32-0.4,9.58-4.78,9.85-10.11C40.35,42.11,35.14,36.9,28.8,37.22z"/>
</g>
</svg>
