<svg width="13" height="16" viewBox="0 0 13 16" fill="none" xmlns="http://www.w3.org/2000/svg">
<path fill-rule="evenodd" clip-rule="evenodd" d="M5.99917 0.186142C6.2866 -0.0620472 6.7134 -0.0620472 7.00083 0.186142L12.7361 5.13852C13.0553 5.41411 13.0898 5.8953 12.8132 6.21328C12.5366 6.53127 12.0536 6.56564 11.7345 6.29005L6.5 1.77013L1.26554 6.29005C0.946391 6.56564 0.463438 6.53127 0.186838 6.21328C-0.0897622 5.8953 -0.0552655 5.41411 0.263888 5.13852L5.99917 0.186142ZM0.186838 9.78672C0.463438 9.46873 0.946391 9.43436 1.26554 9.70995L6.5 14.2299L11.7345 9.70995C12.0536 9.43436 12.5366 9.46873 12.8132 9.78672C13.0898 10.1047 13.0553 10.5859 12.7361 10.8615L7.00083 15.8139C6.7134 16.062 6.2866 16.062 5.99917 15.8139L0.263888 10.8615C-0.0552655 10.5859 -0.0897622 10.1047 0.186838 9.78672Z" fill="black"/>
</svg>
