<svg width="24" height="25" viewBox="0 0 24 25" fill="none" xmlns="http://www.w3.org/2000/svg">
<path d="M12 0C5.37321 0 0 5.63234 0 12.5729C0 18.1286 3.43929 22.8359 8.20714 24.4998C8.27402 24.5147 8.34228 24.522 8.41071 24.5217C8.85536 24.5217 9.02679 24.1878 9.02679 23.8977C9.02679 23.5967 9.01607 22.8085 9.01071 21.7576C8.61377 21.8526 8.20769 21.9022 7.8 21.9053C5.49107 21.9053 4.96607 20.0717 4.96607 20.0717C4.41964 18.6212 3.63214 18.2326 3.63214 18.2326C2.5875 17.4827 3.62679 17.4608 3.70714 17.4608H3.7125C4.91786 17.5703 5.55 18.7635 5.55 18.7635C6.15 19.8363 6.95357 20.1374 7.67143 20.1374C8.14609 20.1277 8.61341 20.0158 9.04286 19.809C9.15 18.9989 9.46071 18.446 9.80357 18.1286C7.14107 17.8111 4.33929 16.7328 4.33929 11.916C4.33929 10.5422 4.80536 9.42007 5.57143 8.54429C5.44821 8.22682 5.03571 6.946 5.68929 5.21634C5.77695 5.19491 5.86706 5.1857 5.95714 5.18897C6.39107 5.18897 7.37143 5.35865 8.98929 6.50811C10.9551 5.94614 13.0342 5.94614 15 6.50811C16.6179 5.35865 17.5982 5.18897 18.0321 5.18897C18.1222 5.1857 18.2123 5.19491 18.3 5.21634C18.9536 6.946 18.5411 8.22682 18.4179 8.54429C19.1839 9.42554 19.65 10.5476 19.65 11.916C19.65 16.7437 16.8429 17.8056 14.1696 18.1176C14.5982 18.5062 14.9839 19.2725 14.9839 20.4439C14.9839 22.1243 14.9679 23.4817 14.9679 23.8923C14.9679 24.1878 15.1339 24.5217 15.5786 24.5217C15.6505 24.5221 15.7224 24.5147 15.7929 24.4998C20.5661 22.8359 24 18.1231 24 12.5729C24 5.63234 18.6268 0 12 0Z" fill="#D4D4D4"/>
</svg>
