<svg width="77" height="106" viewBox="0 0 77 106" fill="none" xmlns="http://www.w3.org/2000/svg">
<path d="M7.23333 0.520447C3.23847 0.520447 0 3.75891 0 7.75377V85.4509C0 86.6868 1.48455 87.3164 2.37309 86.4574L15.4518 73.813H69.7667C73.7615 73.813 77 70.5746 77 66.5797V7.75378C77 3.75892 73.7615 0.520447 69.7667 0.520447H7.23333Z" fill="#EEB868"/>
<path d="M11.2966 37.0596H65.9365V43.2827H11.2966V37.0596Z" fill="#1F7A8C"/>
<path d="M30.1448 53.4138H47.0883V59.6018H30.1448V53.4138Z" fill="#1F7A8C"/>
<path d="M17.3678 18.9601H36.0481V25.1832H17.3678V18.9601Z" fill="#1F7A8C"/>
<path d="M57.5304 22.079C57.5304 25.3932 54.7077 28.0799 51.2257 28.0799C47.7438 28.0799 44.9211 25.3932 44.9211 22.079C44.9211 18.7649 47.7438 16.0782 51.2257 16.0782C54.7077 16.0782 57.5304 18.7649 57.5304 22.079Z" fill="#1F7A8C"/>
<path d="M76.9211 97.5998V98.1695C76.9211 99.2445 76.7698 100.21 76.4672 101.066C76.1711 101.916 75.7495 102.643 75.2023 103.248C74.6552 103.847 74.0082 104.307 73.2615 104.629C72.5148 104.945 71.6909 105.102 70.7896 105.102C69.882 105.102 69.0516 104.945 68.2985 104.629C67.5517 104.307 66.9016 103.847 66.348 103.248C65.8008 102.643 65.376 101.916 65.0734 101.066C64.7773 100.21 64.6293 99.2445 64.6293 98.1695V97.5998C64.6293 96.5248 64.7773 95.5593 65.0734 94.7031C65.376 93.847 65.7976 93.1196 66.3383 92.5209C66.8855 91.9158 67.5324 91.4556 68.2792 91.1401C69.0323 90.8183 69.8627 90.6573 70.7703 90.6573C71.6715 90.6573 72.4955 90.8183 73.2422 91.1401C73.9954 91.4556 74.6455 91.9158 75.1927 92.5209C75.7398 93.1196 76.1647 93.847 76.4672 94.7031C76.7698 95.5593 76.9211 96.5248 76.9211 97.5998ZM73.4836 98.1695V97.5805C73.4836 96.8853 73.4225 96.2738 73.3001 95.7459C73.1843 95.2116 73.0105 94.7643 72.7787 94.4038C72.547 94.0433 72.2605 93.7729 71.9194 93.5927C71.5846 93.406 71.2016 93.3127 70.7703 93.3127C70.3197 93.3127 69.9271 93.406 69.5923 93.5927C69.2576 93.7729 68.9776 94.0433 68.7523 94.4038C68.527 94.7643 68.3564 95.2116 68.2405 95.7459C68.1311 96.2738 68.0764 96.8853 68.0764 97.5805V98.1695C68.0764 98.8583 68.1311 99.4698 68.2405 100.004C68.3564 100.532 68.527 100.979 68.7523 101.346C68.984 101.713 69.2673 101.99 69.602 102.177C69.9432 102.363 70.339 102.457 70.7896 102.457C71.2209 102.457 71.604 102.363 71.9387 102.177C72.2734 101.99 72.5534 101.713 72.7787 101.346C73.0105 100.979 73.1843 100.532 73.3001 100.004C73.4225 99.4698 73.4836 98.8583 73.4836 98.1695Z" fill="#1F7A8C"/>
<path d="M49.3636 90.8504H52.1251L55.2632 100.632L58.4014 90.8504H61.1629L56.3833 104.909H54.1432L49.3636 90.8504ZM47.6835 90.8504H50.5416L51.0726 101.626V104.909H47.6835V90.8504ZM59.9849 90.8504H62.8527V104.909H59.4538V101.626L59.9849 90.8504Z" fill="#1F7A8C"/>
<path d="M45.2983 90.8504V104.909H41.9188V90.8504H45.2983Z" fill="#1F7A8C"/>
<path d="M36.0288 90.8504V104.909H32.6396V90.8504H36.0288ZM40.258 90.8504V93.4671H28.507V90.8504H40.258Z" fill="#1F7A8C"/>
<path d="M24.0848 101.172C24.0848 100.954 24.0526 100.757 23.9882 100.583C23.9239 100.403 23.8048 100.236 23.631 100.081C23.4572 99.9269 23.2061 99.7724 22.8778 99.6179C22.556 99.457 22.1311 99.2896 21.6033 99.1158C20.9853 98.9098 20.3899 98.6781 19.817 98.4206C19.244 98.1567 18.7323 97.8509 18.2817 97.5033C17.8311 97.1492 17.4738 96.7373 17.2099 96.2673C16.946 95.791 16.814 95.2374 16.814 94.6066C16.814 94.0015 16.9492 93.4575 17.2196 92.9747C17.4899 92.4855 17.8665 92.0703 18.3493 91.7291C18.8385 91.3815 19.4114 91.1176 20.068 90.9374C20.7246 90.7507 21.4423 90.6573 22.2212 90.6573C23.2512 90.6573 24.1588 90.8376 24.9442 91.1981C25.7359 91.5521 26.3539 92.0574 26.7981 92.714C27.2487 93.3642 27.474 94.1334 27.474 95.0218H24.1041C24.1041 94.6677 24.0301 94.3555 23.882 94.0851C23.7404 93.8148 23.5248 93.6024 23.2351 93.4479C22.9454 93.2934 22.5817 93.2161 22.144 93.2161C21.7191 93.2161 21.3619 93.2805 21.0722 93.4092C20.7825 93.538 20.5637 93.7118 20.4156 93.9307C20.2676 94.1431 20.1935 94.378 20.1935 94.6355C20.1935 94.8479 20.2515 95.0411 20.3673 95.2149C20.4896 95.3822 20.6602 95.5399 20.8791 95.688C21.1044 95.8361 21.3748 95.9777 21.6902 96.1129C22.012 96.248 22.3725 96.38 22.7716 96.5087C23.5183 96.7469 24.1814 97.0141 24.7607 97.3102C25.3465 97.5998 25.8389 97.9314 26.238 98.3047C26.6436 98.6716 26.9493 99.09 27.1553 99.56C27.3678 100.03 27.474 100.561 27.474 101.153C27.474 101.784 27.3517 102.344 27.1071 102.833C26.8624 103.322 26.5116 103.738 26.0546 104.079C25.5975 104.414 25.0504 104.668 24.4131 104.842C23.7758 105.015 23.0645 105.102 22.2792 105.102C21.5582 105.102 20.8469 105.012 20.1453 104.832C19.45 104.645 18.8192 104.362 18.2527 103.982C17.6863 103.596 17.2324 103.104 16.8913 102.505C16.5565 101.9 16.3892 101.182 16.3892 100.352H19.788C19.788 100.764 19.8427 101.111 19.9521 101.395C20.0616 101.678 20.2225 101.906 20.4349 102.08C20.6474 102.247 20.9081 102.37 21.217 102.447C21.526 102.518 21.8801 102.553 22.2792 102.553C22.7105 102.553 23.0581 102.492 23.322 102.37C23.5859 102.241 23.779 102.074 23.9013 101.868C24.0236 101.655 24.0848 101.424 24.0848 101.172Z" fill="#1F7A8C"/>
<path d="M14.4579 90.8504V104.909H11.0784V90.8504H14.4579Z" fill="#1F7A8C"/>
<path d="M9.42727 102.302V104.909H2.32063V102.302H9.42727ZM3.5276 90.8504V104.909H0.138428V90.8504H3.5276Z" fill="#1F7A8C"/>
</svg>
