<svg width="16" height="16" viewBox="0 0 16 16" fill="none" xmlns="http://www.w3.org/2000/svg">
<path fill-rule="evenodd" clip-rule="evenodd" d="M10.4615 0.615385C10.4615 0.275517 10.7371 0 11.0769 0H15.3846C15.7245 0 16 0.275517 16 0.615385V4.92308C16 5.26294 15.7245 5.53846 15.3846 5.53846C15.0447 5.53846 14.7692 5.26294 14.7692 4.92308V2.10106L7.20437 9.66591C6.96405 9.90624 6.57441 9.90624 6.33409 9.66591C6.09377 9.42559 6.09377 9.03595 6.33409 8.79563L13.8989 1.23077H11.0769C10.7371 1.23077 10.4615 0.955252 10.4615 0.615385ZM2.15385 3.69231C1.90903 3.69231 1.67424 3.78956 1.50113 3.96267C1.32802 4.13578 1.23077 4.37057 1.23077 4.61538V13.8462C1.23077 14.091 1.32802 14.3258 1.50113 14.4989C1.67424 14.672 1.90903 14.7692 2.15385 14.7692H11.3846C11.5058 14.7692 11.6259 14.7454 11.7379 14.699C11.8499 14.6526 11.9516 14.5846 12.0373 14.4989C12.123 14.4132 12.191 14.3114 12.2374 14.1994C12.2838 14.0874 12.3077 13.9674 12.3077 13.8462V6.76923C12.3077 6.42936 12.5832 6.15385 12.9231 6.15385C13.2629 6.15385 13.5385 6.42936 13.5385 6.76923V13.8462C13.5385 14.129 13.4827 14.4091 13.3745 14.6704C13.2663 14.9317 13.1076 15.1692 12.9076 15.3692C12.7076 15.5692 12.4702 15.7278 12.2089 15.836C11.9475 15.9443 11.6675 16 11.3846 16H2.15385C1.58261 16 1.03477 15.7731 0.630847 15.3692C0.226922 14.9652 0 14.4174 0 13.8462V4.61538C0 4.04415 0.226922 3.49631 0.630847 3.09239C1.03477 2.68846 1.58261 2.46154 2.15385 2.46154H8.59539C8.93525 2.46154 9.21077 2.73706 9.21077 3.07692C9.21077 3.41679 8.93525 3.69231 8.59539 3.69231H2.15385Z" fill="#282828"/>
</svg>
