<svg width="24" height="20" viewBox="0 0 24 20" fill="none" xmlns="http://www.w3.org/2000/svg">
<path d="M24 2.26339C23.0997 2.65257 22.1472 2.90897 21.1725 3.02449C22.1968 2.42774 22.9672 1.4797 23.339 0.35817C22.3705 0.921575 21.3128 1.31689 20.211 1.52717C19.747 1.04342 19.1891 0.658581 18.571 0.396049C17.9529 0.133516 17.2876 -0.00122737 16.6155 8.42398e-06C13.8945 8.42398e-06 11.6925 2.15893 11.6925 4.82027C11.6906 5.19046 11.7332 5.55954 11.8195 5.91963C9.86834 5.82863 7.95776 5.33343 6.20999 4.46572C4.46222 3.59801 2.91574 2.37689 1.6695 0.88049C1.23229 1.61379 1.00107 2.45046 1 3.30306C1 4.97448 1.8765 6.4519 3.2 7.31746C2.41586 7.29895 1.6478 7.09246 0.961 6.71555V6.77524C0.961 9.11325 2.661 11.0583 4.911 11.501C4.48789 11.6132 4.05188 11.6701 3.614 11.6701C3.30329 11.6707 2.99328 11.6407 2.6885 11.5806C3.314 13.4958 5.1345 14.8886 7.291 14.9284C5.53869 16.272 3.38731 16.9982 1.175 16.9928C0.782309 16.9922 0.389983 16.969 0 16.9232C2.25059 18.3529 4.86672 19.1092 7.537 19.102C16.605 19.102 21.559 11.7547 21.559 5.38239C21.559 5.17346 21.5535 4.96453 21.5435 4.76058C22.505 4.0801 23.3369 3.23447 24 2.26339Z" fill="#D4D4D4"/>
</svg>
